<svg xmlns="http://www.w3.org/2000/svg" viewBox="0 0 64 64">
  <rect width="64" height="64" rx="10" fill="#153243"/>
  <rect x="9" y="9" width="46" height="46" rx="6" fill="#eef4d4"/>
  <path d="M26 16c-6 0-6 8-6 8s0 8-5 8c5 0 5 8 5 8s0 8 6 8" fill="none" stroke="#153243" stroke-width="4" stroke-linecap="round" stroke-linejoin="round"/>
  <path d="M38 16c6 0 6 8 6 8s0 8 5 8c-5 0-5 8-5 8s0 8-6 8" fill="none" stroke="#153243" stroke-width="4" stroke-linecap="round" stroke-linejoin="round"/>
  <circle cx="27" cy="25" r="3" fill="#f5b700"/>
  <path d="M34 25h8" stroke="#f5b700" stroke-width="3" stroke-linecap="round"/>
  <path d="M34 37h8" stroke="#153243" stroke-width="3" stroke-linecap="round"/>
  <path d="M21 37h7" stroke="#153243" stroke-width="3" stroke-linecap="round"/>
</svg>
